<?xml version="1.0" encoding="UTF-8" standalone="no"?>
<!-- Created with Inkscape (http://www.inkscape.org/) -->

<svg
   width="48"
   height="48"
   viewBox="0 0 48 48"
   version="1.1"
   id="svg1"
   sodipodi:docname="technicolor.svg"
   inkscape:version="1.4.3 (0d15f75042, 2025-12-25)"
   inkscape:export-filename="/home/lisq/Dokumenty/technicolor.png"
   inkscape:export-xdpi="256"
   inkscape:export-ydpi="256"
   xmlns:inkscape="http://www.inkscape.org/namespaces/inkscape"
   xmlns:sodipodi="http://sodipodi.sourceforge.net/DTD/sodipodi-0.dtd"
   xmlns="http://www.w3.org/2000/svg"
   xmlns:svg="http://www.w3.org/2000/svg">
  <sodipodi:namedview
     id="namedview1"
     pagecolor="#505050"
     bordercolor="#eeeeee"
     borderopacity="1"
     inkscape:showpageshadow="0"
     inkscape:pageopacity="0"
     inkscape:pagecheckerboard="0"
     inkscape:deskcolor="#505050"
     inkscape:document-units="px"
     showgrid="false"
     showguides="true"
     inkscape:zoom="11.785113"
     inkscape:cx="18.328208"
     inkscape:cy="26.134667"
     inkscape:window-width="1920"
     inkscape:window-height="1011"
     inkscape:window-x="0"
     inkscape:window-y="0"
     inkscape:window-maximized="1"
     inkscape:current-layer="layer1">
    <inkscape:grid
       id="grid1"
       units="px"
       originx="0"
       originy="0"
       spacingx="1"
       spacingy="1"
       empcolor="#0099e5"
       empopacity="0.30196078"
       color="#0099e5"
       opacity="0.14901961"
       empspacing="8"
       enabled="true"
       visible="false" />
  </sodipodi:namedview>
  <defs
     id="defs1" />
  <g
     inkscape:label="Warstwa 1"
     inkscape:groupmode="layer"
     id="layer1">
    <circle
       style="fill:#1a1a20;fill-opacity:1;stroke:none;stroke-width:1.08;stroke-dasharray:none;stroke-opacity:1"
       id="path61"
       cx="24"
       cy="24"
       r="24" />
    <path
       id="path2"
       style="fill:#8a80da;fill-opacity:1;stroke:none;stroke-width:0.958335;stroke-opacity:1"
       d="m 25,5.6503905 c 1.701462,0.083708 3.390629,0.4224225 5.000209,0.9778545 1.704976,0.5793888 3.30582,1.4351219 4.775181,2.472341 0.500992,0.4010192 1.02842,0.7726281 1.492188,1.217773 C 37.119792,9.4661459 37.972005,8.6139323 38.824219,7.7617188 37.431727,6.479683 35.863004,5.388426 34.185347,4.5132005 32.334158,3.540979 30.340956,2.838373 28.289916,2.4340455 27.205136,2.2214425 26.105063,2.0757985 25,2.036133 c 0,1.2047525 0,2.409505 0,3.6142575 z" />
    <path
       id="path60"
       style="fill:#8a80da;fill-opacity:1;stroke:none;stroke-width:0.958335;stroke-opacity:1"
       d="m 25,11.75293 c 1.637071,0.132184 3.239565,0.605633 4.699282,1.356938 0.798336,0.432698 1.5612,0.934781 2.253843,1.522945 0.966471,-0.966472 1.932942,-1.932943 2.899414,-2.899415 C 32.913381,10.012215 30.556934,8.7691467 28.045248,8.1265222 27.048091,7.8754909 26.026654,7.7123197 25,7.6513672 c 0,1.3671875 0,2.7343748 0,4.1015628 z" />
    <path
       id="path59"
       style="fill:#20202a;fill-opacity:1;stroke:none;stroke-width:0.958335;stroke-opacity:1"
       d="m 37.68164,11.732422 c 1.154186,1.275677 2.11948,2.723662 2.866254,4.27293 0.840438,1.731562 1.403779,3.598262 1.661143,5.505316 0.05233,0.496044 0.138427,0.989395 0.140572,1.489332 1.204753,0 2.409506,0 3.614258,0 -0.078,-1.871808 -0.408688,-3.733835 -0.963936,-5.522555 -0.625674,-2.021313 -1.548097,-3.950321 -2.726066,-5.707409 -0.612442,-0.913766 -1.2867,-1.7882379 -2.035584,-2.5942547 -0.852214,0.8522137 -1.704427,1.7044267 -2.556641,2.5566407 z" />
    <path
       id="path58"
       style="fill:#769edb;fill-opacity:1;stroke:none;stroke-width:0.958335;stroke-opacity:1"
       d="m 33.367187,16.046875 c 1.275876,1.508967 2.190348,3.325094 2.617817,5.256129 0.133554,0.555965 0.208615,1.12821 0.262066,1.696996 1.367188,0 2.734375,0 4.101563,0 -0.154045,-2.602891 -0.951313,-5.16156 -2.28658,-7.400563 -0.525441,-0.867073 -1.120126,-1.69512 -1.795452,-2.451976 -0.966471,0.966471 -1.932942,1.932943 -2.899414,2.899414 z" />
    <path
       id="path57"
       style="fill:#20202a;fill-opacity:1;stroke:none;stroke-width:0.958335;stroke-opacity:1"
       d="m 42.333984,25.40332 c -0.15693,1.829659 -0.559276,3.639786 -1.239112,5.347446 -0.711594,1.806517 -1.715487,3.496903 -2.954897,4.991714 -0.06939,0.226092 -0.598059,0.430128 -0.352269,0.631164 0.816859,0.816858 1.633717,1.633716 2.450575,2.450575 1.282036,-1.392492 2.373293,-2.961215 3.248519,-4.638872 0.972221,-1.851189 1.674827,-3.844391 2.079155,-5.895431 0.212603,-1.08478 0.358247,-2.184853 0.397912,-3.289916 -1.204752,0 -2.409505,0 -3.614258,0 -0.0052,0.13444 -0.01041,0.26888 -0.01563,0.40332 z" />
    <path
       id="path56"
       style="fill:#20202a;fill-opacity:1;stroke:none;stroke-width:0.958335;stroke-opacity:1"
       d="m 36.239258,25.157226 c -0.162496,1.564648 -0.605844,3.097766 -1.327757,4.496852 -0.432361,0.817254 -0.947069,1.592819 -1.544314,2.299047 0.966472,0.966471 1.932943,1.932942 2.899414,2.899414 1.721184,-1.939158 2.964253,-4.295605 3.606877,-6.807291 C 40.124509,27.048091 40.28768,26.026654 40.348633,25 c -1.367188,0 -2.734375,0 -4.101563,0 -0.0026,0.05241 -0.0052,0.104817 -0.0078,0.157226 z" />
    <path
       id="path55"
       style="fill:#53b996;fill-opacity:1;stroke:none;stroke-width:0.958335;stroke-opacity:1"
       d="m 35.970703,37.956054 c -1.404831,1.182737 -2.968823,2.178999 -4.657165,2.905828 -1.780725,0.773734 -3.685271,1.25992 -5.618679,1.441027 -0.208641,0.111137 -0.726846,-0.119672 -0.694859,0.1967 0,1.154753 0,2.309505 0,3.464258 1.871807,-0.078 3.733834,-0.408688 5.522555,-0.963936 2.021313,-0.625673 3.950321,-1.548097 5.707409,-2.726066 0.913767,-0.612442 1.788238,-1.2867 2.594255,-2.035584 -0.852214,-0.852213 -1.704427,-1.704427 -2.556641,-2.556641 -0.09896,0.09147 -0.197916,0.182944 -0.296875,0.274414 z" />
    <path
       id="path54"
       style="fill:#53b996;fill-opacity:1;stroke:none;stroke-width:0.958335;stroke-opacity:1"
       d="m 31.836914,33.471679 c -1.221913,0.990862 -2.618568,1.763979 -4.119137,2.241582 C 26.834489,35.986767 25.921991,36.17129 25,36.24707 c 0,1.367188 0,2.734375 0,4.101563 2.60289,-0.154045 5.161559,-0.951313 7.400564,-2.28658 0.867071,-0.525441 1.695119,-1.120126 2.451975,-1.795452 -0.966472,-0.966471 -1.932943,-1.932942 -2.899414,-2.899414 -0.03873,0.03483 -0.07747,0.06966 -0.116211,0.104492 z" />
    <path
       id="path53"
       style="fill:#20202a;fill-opacity:1;stroke:none;stroke-width:0.958335;stroke-opacity:1"
       d="m 2.0566405,25.565429 c 0.128521,1.529405 0.3885375,3.045761 0.8069845,4.523086 0.5721255,1.942138 1.3930075,3.811433 2.4664135,5.529579 C 6.040591,36.75694 6.849846,37.838318 7.7617187,38.824219 8.6139323,37.972005 9.4661459,37.119792 10.318359,36.267578 9.1641737,34.991901 8.1988797,33.543917 7.4521054,31.994649 6.611668,30.263085 6.0483265,28.396385 5.7909625,26.489332 5.738635,25.993288 5.6525355,25.499937 5.6503905,25 4.445638,25 3.2408855,25 2.036133,25 c 0.00684,0.188476 0.01367,0.376953 0.02051,0.565429 z" />
    <path
       id="path52"
       style="fill:#20202a;fill-opacity:1;stroke:none;stroke-width:0.958335;stroke-opacity:1"
       d="m 9.1757813,40.238281 c 1.3924907,1.282036 2.9612147,2.373293 4.6388727,3.248519 1.851188,0.972221 3.84439,1.674827 5.89543,2.079155 1.08478,0.212603 2.184852,0.358247 3.289916,0.397912 0,-1.204752 0,-2.409505 0,-3.614258 -1.701462,-0.08371 -3.39063,-0.422422 -5.000209,-0.977854 -1.704976,-0.579389 -3.305821,-1.435122 -4.775182,-2.472341 -0.500992,-0.401019 -1.028419,-0.772628 -1.492187,-1.217774 -0.852214,0.852214 -1.704427,1.704427 -2.5566407,2.556641 z" />
    <path
       id="path51"
       style="fill:#df868c;fill-opacity:1;stroke:none;stroke-width:0.958335;stroke-opacity:1"
       d="m 7.6621094,25.282226 c 0.178886,2.042249 0.7112107,4.054866 1.6164354,5.89664 0.6478152,1.326954 1.4750752,2.568658 2.4548532,3.673673 0.966472,-0.966472 1.932943,-1.932943 2.899415,-2.899414 -1.275876,-1.508968 -2.190348,-3.325094 -2.617817,-5.25613 C 11.881443,26.14103 11.806381,25.568785 11.75293,25 c -1.367188,0 -2.7343753,0 -4.1015628,0 0.00358,0.09408 0.00716,0.188151 0.010742,0.282226 z" />
    <path
       id="path50"
       style="fill:#20202a;fill-opacity:1;stroke:none;stroke-width:0.958335;stroke-opacity:1"
       d="m 13.147461,36.266601 c 1.939158,1.721184 4.295605,2.964253 6.80729,3.606877 0.997158,0.251031 2.018594,0.414202 3.045249,0.475155 0,-1.367188 0,-2.734375 0,-4.101563 -1.637071,-0.132185 -3.239565,-0.605633 -4.699283,-1.356938 -0.798335,-0.432699 -1.561199,-0.934781 -2.253842,-1.522945 -0.966471,0.966472 -1.932943,1.932943 -2.899414,2.899414 z" />
    <path
       id="path49"
       style="fill:#df868c;fill-opacity:1;stroke:none;stroke-width:0.958335;stroke-opacity:1"
       d="m 13.756836,25.011719 c 0.204622,1.937465 0.94674,3.817235 2.159038,5.345793 0.161293,0.4052 0.395637,-0.177914 0.59355,-0.280999 1.692171,-1.692171 3.384342,-3.384342 5.076513,-5.076513 -2.610026,0 -5.220052,0 -7.830078,0 z" />
    <path
       id="path48"
       style="fill:#ce9d81;fill-opacity:1;stroke:none;stroke-width:0.958335;stroke-opacity:1"
       d="m 17.463867,31.950195 c 1.529853,1.240091 3.405931,2.051867 5.36628,2.269627 0.348423,0.112132 0.09133,-0.476227 0.169853,-0.675682 0,-2.376692 0,-4.753385 0,-7.130078 -1.845377,1.845378 -3.690755,3.690755 -5.536133,5.536133 z" />
    <path
       id="path47"
       style="fill:#53b996;fill-opacity:1;stroke:none;stroke-width:0.958335;stroke-opacity:1"
       d="m 25,34.24414 c 1.941634,-0.202366 3.825873,-0.945378 5.357512,-2.160015 0.4052,-0.161292 -0.177914,-0.395637 -0.280999,-0.593549 C 28.384342,29.798405 26.692171,28.106233 25,26.414062 c 0,2.610027 0,5.220052 0,7.830078 z" />
    <path
       id="path46"
       style="fill:#6ec7dd;fill-opacity:1;stroke:none;stroke-width:0.958335;stroke-opacity:1"
       d="m 31.950195,30.536133 c 1.240091,-1.529853 2.051867,-3.405931 2.269627,-5.36628 C 34.331954,24.821429 33.743595,25.078527 33.54414,25 c -2.376692,0 -4.753385,0 -7.130078,0 1.845378,1.845377 3.690755,3.690755 5.536133,5.536133 z" />
    <path
       id="path45"
       style="fill:#769edb;fill-opacity:1;stroke:none;stroke-width:0.958335;stroke-opacity:1"
       d="m 26.414062,23 c 2.610027,0 5.220052,0 7.830078,0 -0.202366,-1.941634 -0.945378,-3.825873 -2.160015,-5.357512 -0.161292,-0.4052 -0.395637,0.177914 -0.593549,0.280998 C 29.798405,19.615657 28.106233,21.307829 26.414062,23 Z" />
    <path
       id="path44"
       style="fill:#8a80da;fill-opacity:1;stroke:none;stroke-width:0.958335;stroke-opacity:1"
       d="m 25,21.585937 c 1.839514,-1.84733 3.710293,-3.694661 5.530273,-5.541992 -1.517294,-1.223937 -3.370249,-2.035379 -5.310956,-2.256466 -0.398535,-0.170572 -0.152044,0.406108 -0.219317,0.61838 0,2.39336 0,4.786719 0,7.180078 z" />
    <path
       id="path43"
       style="fill:#c46390;fill-opacity:1;stroke:none;stroke-width:0.958335;stroke-opacity:1"
       d="m 16.043945,17.469726 c -1.223937,1.517295 -2.035379,3.37025 -2.256466,5.310957 -0.170572,0.398535 0.406108,0.152044 0.61838,0.219317 2.39336,0 4.786719,0 7.180078,0 -1.847314,-1.839515 -3.694684,-3.710291 -5.541992,-5.530274 z" />
    <path
       id="path42"
       style="fill:#c179d2;fill-opacity:1;stroke:none;stroke-width:0.958335;stroke-opacity:1"
       d="m 22.988281,13.756836 c -1.937465,0.204622 -3.817235,0.94674 -5.345793,2.159038 -0.4052,0.161293 0.177914,0.395637 0.280999,0.59355 1.69217,1.692171 3.384342,3.384342 5.076513,5.076513 0,-2.610026 0,-5.220052 0,-7.830078 z" />
    <path
       id="path41"
       style="fill:#c46390;fill-opacity:1;stroke:none;stroke-width:0.958335;stroke-opacity:1"
       d="m 11.538086,13.358398 c -1.326131,1.583203 -2.3789285,3.3976 -3.041202,5.356178 C 8.0250678,20.096283 7.7393213,21.542631 7.6513672,23 c 1.3671875,0 2.7343748,0 4.1015628,0 0.132184,-1.637071 0.605633,-3.239566 1.356938,-4.699283 0.432698,-0.798335 0.934781,-1.561199 1.522945,-2.253842 -0.966472,-0.966471 -1.932943,-1.932943 -2.899415,-2.899414 -0.0651,0.07031 -0.130208,0.140625 -0.195312,0.210937 z" />
    <path
       id="path40"
       style="fill:#c179d2;fill-opacity:1;stroke:none;stroke-width:0.958335;stroke-opacity:1"
       d="m 22.717773,7.6621094 c -2.042248,0.178886 -4.054866,0.7112107 -5.896639,1.6164354 -1.326955,0.6478152 -2.568659,1.4750742 -3.673673,2.4548532 0.966471,0.966472 1.932943,1.932943 2.899414,2.899415 1.508967,-1.275876 3.325094,-2.190348 5.256129,-2.617817 0.555965,-0.133553 1.12821,-0.208615 1.696996,-0.262066 0,-1.367188 0,-2.7343753 0,-4.1015628 -0.09408,0.00358 -0.188151,0.00716 -0.282227,0.010742 z" />
    <path
       id="path39"
       style="fill:#c46390;fill-opacity:1;stroke:none;stroke-width:0.958335;stroke-opacity:1"
       d="M 7.375,9.5917969 C 6.3878595,10.759004 5.5034345,12.010233 4.7583665,13.345779 3.7732435,15.143074 3.0282205,17.071055 2.5680175,19.069155 2.279966,20.360391 2.085754,21.676949 2.036133,23 3.2408855,23 4.445638,23 5.6503905,23 5.7340985,21.298538 6.072813,19.60937 6.628245,17.999791 7.2076338,16.294815 8.0633669,14.69397 9.1005859,13.224609 9.5016052,12.723617 9.8732141,12.19619 10.318359,11.732422 9.4661459,10.880208 8.6139323,10.027995 7.7617187,9.1757813 7.6328125,9.3144532 7.5039062,9.453125 7.375,9.5917969 Z" />
    <path
       id="path38"
       style="fill:#20202a;fill-opacity:1;stroke:none;stroke-width:0.958335;stroke-opacity:1"
       d="M 22.43457,2.0566405 C 20.905165,2.1851615 19.38881,2.445178 17.911485,2.863625 15.969347,3.4357505 14.100052,4.2566325 12.381905,5.3300385 11.24306,6.040591 10.161681,6.849846 9.1757813,7.7617187 10.027995,8.6139323 10.880208,9.4661459 11.732422,10.318359 13.008099,9.1641737 14.456084,8.1988797 16.005352,7.4521054 17.736914,6.611668 19.603614,6.0483265 21.510668,5.7909625 22.006712,5.738635 22.500063,5.6525355 23,5.6503905 23,4.445638 23,3.2408855 23,2.036133 c -0.188477,0.00684 -0.376953,0.01367 -0.56543,0.02051 z" />
  </g>
</svg>
